<svg width="484" height="759" viewBox="0 0 484 759" fill="none" xmlns="http://www.w3.org/2000/svg">
<path d="M22.9492 524V493.238L62.7441 486.402V206.373L22.9492 199.537V168.531H62.7441H126.953L241.455 438.307H242.92L353.76 168.531H460.938V199.537L421.143 206.373V486.402L460.938 493.238V524H333.252V493.238L375.244 486.402V383.375V234.205L374.023 233.961L258.545 511.305H226.562L107.178 234.449L105.957 234.693L107.666 383.375V486.402L150.635 493.238V524H22.9492Z" fill="black"/>
<path d="M71.0898 624V593.238L97.457 589.576L221.725 268.531H262.984L385.055 589.576L411.178 593.238V624H309.127V593.238L335.982 588.6L312.545 523.17H170.211L146.041 588.6L172.896 593.238V624H71.0898ZM185.104 482.887H297.896L245.65 338.355L242.721 330.299H241.256L238.326 338.355L185.104 482.887Z" fill="black"/>
</svg>
