<svg width="735" height="1105" viewBox="0 0 735 1105" fill="none" xmlns="http://www.w3.org/2000/svg">
<path d="M85.6934 204.182C85.0423 227.945 84.7168 252.521 84.7168 277.912C84.7168 312.58 85.2865 349.934 86.4258 389.973C87.5651 430.012 88.3789 452.798 88.8672 458.332C89.5182 463.703 90.332 468.423 91.3086 472.492C93.099 479.979 96.0286 486.815 100.098 493H31.9824C38.1673 484.211 41.8294 474.771 42.9688 464.68C44.2708 454.589 45.2474 444.823 45.8984 435.383C47.2005 416.177 47.8516 390.38 47.8516 357.99C47.8516 318.765 47.2005 282.958 45.8984 250.568L43.2129 183.43C42.2363 158.69 38.2487 141.112 31.25 130.695C28.6458 126.789 25.3092 123.046 21.2402 119.465H116.699C123.047 147.297 130.941 176.838 140.381 208.088L184.814 349.934L252.93 119.465H348.145C340.169 126.464 334.961 133.625 332.52 140.949C328.939 152.18 326.904 165.201 326.416 180.012L324.707 223.225C322.591 273.843 321.533 318.765 321.533 357.99C321.533 423.745 324.544 465.493 330.566 483.234C331.706 486.49 333.171 489.745 334.961 493H258.057C262.451 484.374 264.893 475.096 265.381 465.168C266.032 455.077 266.602 441.242 267.09 423.664C269.043 365.884 270.02 323.811 270.02 297.443C270.02 253.986 269.613 221.678 268.799 200.52L178.955 493L131.348 343.098L85.6934 204.182Z" fill="white"/>
<path d="M549.168 584.668C553.562 590.69 555.76 599.398 555.76 610.791C555.76 622.184 555.271 631.299 554.295 638.135C553.318 644.808 551.772 650.911 549.656 656.445C544.773 668.815 538.344 675 530.369 675H332.615C345.148 668.327 353.449 661.898 357.518 655.713C365.167 644.157 368.992 629.508 368.992 611.768C368.829 568.311 368.748 529.004 368.748 493.848V365.43C368.748 341.178 364.923 323.6 357.273 312.695C354.344 308.789 350.844 305.046 346.775 301.465H530.369C541.437 305.371 549.005 319.043 553.074 342.48C554.214 348.991 554.783 355.339 554.783 361.523C554.783 374.219 552.911 384.31 549.168 391.797L535.984 365.43C527.195 348.177 514.581 336.621 498.143 330.762C489.028 327.507 478.774 325.879 467.381 325.879C455.988 325.879 447.85 326.286 442.967 327.1C438.084 327.751 434.34 329.46 431.736 332.227C427.505 336.947 425.389 345.98 425.389 359.326C425.389 372.51 425.714 381.706 426.365 386.914C427.016 391.96 428.562 396.11 431.004 399.365C436.049 405.713 446.71 408.887 462.986 408.887H539.646C535.903 418.327 532.078 425 528.172 428.906C520.359 436.719 509.78 440.625 496.434 440.625C491.225 440.625 486.261 440.055 481.541 438.916C472.752 436.8 465.021 435.742 458.348 435.742C451.674 435.742 446.141 436.393 441.746 437.695C437.514 438.835 434.178 440.706 431.736 443.311C427.505 447.868 425.389 456.087 425.389 467.969V584.424C425.389 615.023 427.098 633.171 430.516 638.867C433.934 644.564 438.084 647.982 442.967 649.121C447.85 650.098 455.988 650.586 467.381 650.586C478.774 650.586 489.109 648.958 498.387 645.703C507.664 642.448 515.395 637.891 521.58 632.031C527.928 626.172 533.136 619.255 537.205 611.279C541.274 603.141 545.262 594.271 549.168 584.668Z" fill="white"/>
</svg>
